<svg width="531" height="210" viewBox="0 0 531 210" fill="none" xmlns="http://www.w3.org/2000/svg">
<g clip-path="url(#clip0_7960_220)">
<path d="M227.361 11.8912V19.026L522.741 38.5277L503.952 155.776L126.761 193.114V200.249L510.136 162.197L530.827 32.1064L227.361 11.8912Z" fill="#242424"/>
<g opacity="0.8">
<path opacity="0.8" fill-rule="evenodd" clip-rule="evenodd" d="M0 36.8631L23.0691 192.163L470.181 193.828L522.503 1.90271L0 36.8631Z" fill="#00B993"/>
</g>
<g opacity="0.8">
<path opacity="0.8" fill-rule="evenodd" clip-rule="evenodd" d="M0 36.8631L23.0691 192.163L470.181 193.828L522.503 1.90271L0 36.8631Z" fill="#5CA720"/>
</g>
<path d="M227.361 19.026V11.8913L48.9922 0L30.4418 210L126.761 200.487V193.352L38.29 202.152L55.4135 7.84824L227.361 19.026Z" fill="#242424"/>
<path d="M103.454 149.355C94.4169 149.355 89.8982 144.598 89.8982 135.085V79.434C89.8982 69.6832 94.4169 64.9266 103.454 64.9266H114.156C123.194 64.9266 127.712 69.6832 127.712 79.434V135.085C127.712 144.598 123.194 149.355 114.156 149.355H103.454ZM106.07 139.128H111.778C114.87 139.128 116.297 137.463 116.297 134.134V80.1475C116.297 76.8179 114.632 75.1531 111.302 75.1531H106.07C102.741 75.1531 101.076 76.8179 101.076 80.1475V134.372C101.076 137.463 102.741 139.128 106.07 139.128Z" fill="white"/>
<path d="M163.862 100.838V111.065H149.117V149.355H137.701V64.9265H165.765V75.153H149.117V100.838H163.862V100.838Z" fill="white"/>
<path d="M199.536 100.838V111.065H184.791V149.355H173.375V64.9265H201.439V75.153H184.791V100.838H199.536V100.838Z" fill="white"/>
<path d="M209.049 149.355V64.9265H237.112V75.153H220.465V100.838H235.21V111.065H220.465V139.128H237.112V149.355H209.049Z" fill="white"/>
<path d="M245.198 64.9265H267.316C275.878 64.9265 280.159 69.683 280.159 79.4339V100.363C280.159 107.735 278.018 112.492 273.499 114.394L281.348 149.592H270.645L263.273 115.346H256.376V149.592H244.96V64.9265H245.198ZM256.376 105.595H263.749C267.078 105.595 268.743 103.454 268.743 99.4112V81.0987C268.743 77.0556 267.078 74.9152 263.749 74.9152H256.376V105.595Z" fill="white"/>
<path d="M330.816 73.7258H334.145L339.615 82.0497L344.847 73.7258H348.177V91.3249H345.085V78.7202L339.615 87.0441L334.145 78.7202V91.3249H331.053V73.7258H330.816Z" fill="white"/>
<path d="M357.69 73.7258H370.77V76.5797H360.782V81.0984H369.581V83.9523H360.782V88.7088H371.008V91.5628H357.69V73.7258V73.7258Z" fill="white"/>
<path d="M378.856 82.5254C378.856 77.5311 382.661 73.2502 387.894 73.2502C390.985 73.2502 392.888 74.2015 394.791 75.6285L392.888 78.0068C391.461 76.8176 390.272 76.1042 387.894 76.1042C384.564 76.1042 382.186 78.9581 382.186 82.2876C382.186 85.855 384.564 88.7089 388.131 88.7089C389.796 88.7089 391.223 88.2333 392.412 87.282V83.9524H387.894V81.3363H395.504V88.7089C393.839 90.1359 391.223 91.5628 388.131 91.5628C382.424 91.5628 378.856 87.7576 378.856 82.5254Z" fill="white"/>
<path d="M410.725 73.4883H413.579L421.427 91.3252H418.098L416.195 87.0443H407.871L405.969 91.3252H402.877L410.725 73.4883ZM415.244 84.4283L412.152 77.2935L409.06 84.4283H415.244Z" fill="white"/>
<path d="M334.858 118.913L336.761 116.772C338.426 118.199 340.091 119.15 342.231 119.15C344.134 119.15 345.323 118.199 345.323 117.01C345.323 115.821 344.609 115.107 341.28 114.394C337.475 113.443 335.334 112.491 335.334 109.162C335.334 106.07 337.95 103.93 341.28 103.93C343.896 103.93 345.798 104.643 347.701 106.07L346.036 108.448C344.371 107.259 342.945 106.546 341.28 106.546C339.377 106.546 338.426 107.497 338.426 108.686C338.426 110.113 339.139 110.589 342.707 111.54C346.512 112.491 348.415 113.68 348.415 116.772C348.415 120.102 345.798 122.004 341.993 122.004C339.377 121.766 336.761 120.815 334.858 118.913Z" fill="white"/>
<path d="M362.922 103.93H365.776L373.624 121.766H370.294L368.392 117.486H360.068L358.165 121.766H355.074L362.922 103.93ZM367.441 114.632L364.349 107.497L361.257 114.632H367.441Z" fill="white"/>
<path d="M381.71 103.93H384.802V118.675H394.077V121.529H381.71V103.93V103.93Z" fill="white"/>
<path d="M402.401 103.93H415.482V106.783H405.493V111.302H414.293V114.156H405.493V118.913H415.72V121.766H402.401V103.93V103.93Z" fill="white"/>
<path d="M318.924 138.89L320.114 137.701C320.827 138.177 321.54 138.652 322.254 138.652C322.73 138.652 322.967 138.415 322.967 138.177C322.967 137.939 322.73 137.701 321.778 137.463C320.351 137.225 319.162 136.75 319.162 135.323C319.162 134.134 320.113 133.182 321.778 133.182C322.967 133.182 323.919 133.42 324.632 134.134L323.681 135.561C322.967 135.085 322.254 134.847 321.778 134.847C321.303 134.847 321.065 135.085 321.065 135.323C321.065 135.561 321.303 135.798 322.254 136.036C323.919 136.274 324.87 136.988 324.87 138.177C324.87 139.604 323.681 140.555 322.016 140.555C320.827 140.079 319.638 139.604 318.924 138.89Z" fill="white"/>
<path d="M333.907 132.944H335.81V135.56H338.188V132.944H340.091V139.841H338.188V137.225H335.81V139.841H333.907V132.944Z" fill="white"/>
<path d="M349.128 136.512C349.128 134.609 350.793 132.944 352.933 132.944C355.074 132.944 356.738 134.609 356.738 136.512C356.738 138.414 355.074 140.079 352.933 140.079C350.793 140.079 349.128 138.414 349.128 136.512ZM354.598 136.512C354.598 135.56 353.885 134.609 352.695 134.609C351.744 134.609 351.031 135.56 351.031 136.512C351.031 137.463 351.744 138.414 352.695 138.414C353.885 138.414 354.598 137.463 354.598 136.512Z" fill="white"/>
<path d="M365.538 132.944H368.63C370.295 132.944 371.484 133.896 371.484 135.322C371.484 136.987 370.295 137.939 368.392 137.939H367.441V139.841H365.538V132.944V132.944ZM368.392 136.512C369.106 136.512 369.581 136.036 369.581 135.56C369.581 134.847 369.106 134.609 368.392 134.609H367.441V136.512H368.392Z" fill="white"/>
<path d="M390.986 132.944H392.888L395.742 136.512V132.944H397.645V139.841H395.98L392.888 136.036V139.841H390.986V132.944Z" fill="white"/>
<path d="M406.444 136.512C406.444 134.609 408.109 132.944 410.249 132.944C412.39 132.944 414.055 134.609 414.055 136.512C414.055 138.414 412.39 140.079 410.249 140.079C408.109 140.079 406.444 138.414 406.444 136.512ZM412.152 136.512C412.152 135.56 411.439 134.609 410.249 134.609C409.298 134.609 408.585 135.56 408.585 136.512C408.585 137.463 409.298 138.414 410.249 138.414C411.439 138.414 412.152 137.463 412.152 136.512Z" fill="white"/>
<path d="M422.14 132.944H424.281L425.47 136.987L426.897 132.944H428.562L429.989 136.987L431.178 132.944H433.08L430.702 139.841H429.037L427.61 135.798L426.183 139.841H424.519L422.14 132.944Z" fill="white"/>
</g>
<defs>
<clipPath id="clip0_7960_220">
<rect width="530.827" height="210" fill="white"/>
</clipPath>
</defs>
</svg>
