<svg width="46" height="46" viewBox="0 0 46 46" fill="none" xmlns="http://www.w3.org/2000/svg">
<path d="M17.7982 43.0889C18.8023 43.0889 19.6163 42.2361 19.6163 41.1842C19.6163 40.1322 18.8023 39.2794 17.7982 39.2794C16.794 39.2794 15.98 40.1322 15.98 41.1842C15.98 42.2361 16.794 43.0889 17.7982 43.0889Z" stroke="#5CA720" stroke-width="4.77037" stroke-linecap="round" stroke-linejoin="round"/>
<path d="M37.7984 43.0889C38.8026 43.0889 39.6166 42.2361 39.6166 41.1842C39.6166 40.1322 38.8026 39.2794 37.7984 39.2794C36.7943 39.2794 35.9802 40.1322 35.9802 41.1842C35.9802 42.2361 36.7943 43.0889 37.7984 43.0889Z" stroke="#5CA720" stroke-width="4.77037" stroke-linecap="round" stroke-linejoin="round"/>
<path d="M3.25244 3.08887H10.5252L15.3979 28.5933C15.5642 29.4702 16.0195 30.258 16.6843 30.8186C17.3491 31.3792 18.181 31.6771 19.0343 31.6599H36.707C37.5603 31.6771 38.3921 31.3792 39.0569 30.8186C39.7217 30.258 40.1771 29.4702 40.3434 28.5933L43.2524 12.6126H12.3434" stroke="#5CA720" stroke-width="4.77037" stroke-linecap="round" stroke-linejoin="round"/>
</svg>
